<?xml version="1.0" encoding="UTF-8"?>
<svg width="31px" height="28px" viewBox="0 0 31 28" version="1.1" xmlns="http://www.w3.org/2000/svg" xmlns:xlink="http://www.w3.org/1999/xlink">
    <!-- Generator: Sketch 52.6 (67491) - http://www.bohemiancoding.com/sketch -->
    <title>icon/readrlogo</title>
    <desc>Created with Sketch.</desc>
    <defs>
        <polygon id="path-1" points="0 28 31 28 31 0 0 0"></polygon>
    </defs>
    <g id="prototype" stroke="none" stroke-width="1" fill="none" fill-rule="evenodd">
        <g id="post" transform="translate(-10.000000, -5.000000)">
            <g id="Group-3">
                <g id="icon/readrlogo" transform="translate(10.000000, 5.000000)">
                    <g id="Group-16">
                        <path d="M16.7043324,23.6124837 C16.7043324,23.4123803 16.6348686,23.2672407 16.4962756,23.1769386 C16.3575989,23.0866997 16.1773331,23.0415486 15.9554783,23.0415486 L15.6539297,23.0415486 L15.6539297,24.2658328 L15.8723002,24.2658328 C16.1218625,24.2658328 16.3228949,24.2109322 16.4755089,24.1010047 C16.6279836,23.9912034 16.7043324,23.8283315 16.7043324,23.6124837 M17.4322805,23.5948145 C17.4322805,23.8734826 17.3629003,24.1079146 17.2243073,24.2982052 C17.0856027,24.4885905 16.8862985,24.6347083 16.6262832,24.7366846 L17.7962963,26.32 L16.8914832,26.32 L15.8879379,24.8897122 L15.6539297,24.8897122 L15.6539297,26.32 L14.9259259,26.32 L14.9259259,22.4 L15.9607467,22.4 C16.1756049,22.4 16.3732366,22.4245475 16.5534745,22.4735795 C16.7336845,22.5226745 16.888863,22.597169 17.0188706,22.6972522 C17.1488783,22.7973039 17.2503144,22.9219031 17.3230952,23.0709867 C17.395904,23.220165 17.4322805,23.3947112 17.4322805,23.5948145" id="Fill-1" fill="#FFFFFF"></path>
                        <polygon id="Fill-3" fill="#FFFFFF" points="18.3703704 22.4 20.6495313 22.4 20.6495313 23.0533491 19.168037 23.0533491 19.168037 24.0009846 20.5811118 24.0009846 20.5811118 24.6543021 19.168037 24.6543021 19.168037 25.6666824 20.6666667 25.6666824 20.6666667 26.32 18.3703704 26.32"></polygon>
                        <path d="M22.9629349,23.0592178 L22.4394831,24.8426365 L23.4864429,24.8426365 L22.9629349,23.0592178 Z M24.6851852,26.32 L23.9261042,26.32 L23.6800925,25.4959856 L22.2457773,25.4959856 L21.9997656,26.32 L21.2407407,26.32 L22.5651407,22.4 L23.3607852,22.4 L24.6851852,26.32 Z" id="Fill-5" fill="#FFFFFF"></path>
                        <path d="M26.4542591,25.6666561 C26.6612605,25.6666561 26.8526551,25.6371236 27.0283174,25.5779955 C27.2041053,25.5188674 27.3553684,25.4331726 27.4823577,25.3207849 C27.60919,25.208492 27.7078548,25.0715254 27.7781637,24.9098538 C27.8484726,24.7482769 27.8836427,24.5649923 27.8836427,24.36 C27.8836427,24.1551024 27.8484726,23.9718178 27.7781637,23.8101462 C27.7078548,23.6485692 27.60919,23.5116027 27.4823577,23.3992151 C27.3553684,23.2869536 27.2041053,23.2012273 27.0283174,23.1420992 C26.8526551,23.0829395 26.6612605,23.0533439 26.4542591,23.0533439 L26.0794144,23.0533439 L26.0794144,25.6666561 L26.4542591,25.6666561 Z M25.2592593,22.4 L26.4367054,22.4 C26.7803365,22.4 27.0917493,22.4491262 27.3710693,22.5471578 C27.6502009,22.645284 27.8884158,22.781651 28.0856827,22.9562273 C28.2828867,23.1308667 28.4351859,23.3378783 28.5425805,23.5771674 C28.649975,23.8165827 28.7037037,24.0774849 28.7037037,24.36 C28.7037037,24.6425151 28.649975,24.9035119 28.5425805,25.142801 C28.4351859,25.3822164 28.2828867,25.5892279 28.0856827,25.7637727 C27.8884158,25.9384121 27.6502009,26.0748107 27.3710693,26.1728422 C27.0917493,26.2709684 26.7803365,26.32 26.4367054,26.32 L25.2592593,26.32 L25.2592593,22.4 Z" id="Fill-7" fill="#FFFFFF"></path>
                        <path d="M31,24.2142951 L30.8674786,24.2142951 C30.6716607,24.2142951 30.5084482,24.2447113 30.3779029,24.3053606 C30.2473576,24.3661015 30.1436747,24.4533232 30.0668852,24.5671475 L30.0668852,26.32 L29.2777778,26.32 L29.2777778,23.5484332 L30.0380775,23.5484332 L30.0380775,24.0378688 C30.0918333,23.874805 30.1772065,23.7476487 30.294444,23.6565831 C30.4115272,23.5655175 30.5679778,23.52 30.7638884,23.52 C30.8521331,23.52 30.9308678,23.5295184 31,23.5484332 L31,24.2142951 Z" id="Fill-9" fill="#FFFFFF"></path>
                        <mask id="mask-2" fill="white">
                            <use xlink:href="#path-1"></use>
                        </mask>
                        <g id="Clip-12"></g>
                        <path d="M17.7325308,6.87165505 L19.6224851,6.87165505 L19.6224851,5.78665688 L17.7325308,5.78665688 L17.7325308,6.87165505 Z M21.2856424,17.36 C19.9744983,17.1179403 18.2864453,16.6839527 16.2205612,16.0580081 L16.8253429,14.9729806 C18.4885002,15.3583037 20.1516882,15.7199698 21.8148148,16.0580081 L21.2856424,17.36 Z M14.5574039,6.87165505 L16.4473582,6.87165505 L16.4473582,5.78665688 L14.5574039,5.78665688 L14.5574039,6.87165505 Z M12.1382464,13.8879824 L18.8665156,13.8879824 L18.8665156,13.0923288 L12.1382464,13.0923288 L12.1382464,13.8879824 Z M12.1382464,12.1520029 L18.8665156,12.1520029 L18.8665156,11.3563494 L12.1382464,11.3563494 L12.1382464,12.1520029 Z M12.1382464,10.488345 L18.8665156,10.488345 L18.8665156,9.62034055 L12.1382464,9.62034055 L12.1382464,10.488345 Z M11.4578555,6.87165505 L13.1966221,6.87165505 L13.1966221,5.78665688 L11.4578555,5.78665688 L11.4578555,6.87165505 Z M10.3994799,14.9729806 L20.6052515,14.9729806 L20.6052515,8.60766385 L10.3994799,8.60766385 L10.3994799,14.9729806 Z M9.87030744,7.81198092 L21.1344546,7.81198092 L21.1344546,4.91865248 L9.87030744,4.91865248 L9.87030744,7.81198092 Z M9.64351047,2.2423178 L9.64351047,1.08499817 L14.5574039,1.08499817 L14.5574039,0 L16.4473582,0 L16.4473582,1.08499817 L21.5124393,1.08499817 L21.5124393,2.2423178 L16.4473582,2.2423178 L16.4473582,3.1103222 L20.7564392,3.1103222 L20.7564392,4.1229989 L10.2482922,4.1229989 L10.2482922,3.1103222 L14.5574039,3.1103222 L14.5574039,2.2423178 L9.64351047,2.2423178 Z M9.79469821,17.36 C9.74383102,17.2626126 9.64351047,17.0706554 9.49232273,16.7813402 C9.3907113,16.4919956 9.29023707,16.2750018 9.18991653,16.1303295 C10.7514931,15.7922912 12.3650434,15.4542823 14.0282007,15.1176528 L14.6329824,16.1303295 C13.1210436,16.6116313 11.5074933,17.0219617 9.79469821,17.36 Z M4.2760231,1.95297322 L8.81193182,1.95297322 L8.81193182,0.578659818 L4.2760231,0.578659818 L4.2760231,1.95297322 Z M3.89803839,9.76501284 L9.11430729,9.76501284 L9.11430729,8.39067009 L3.89803839,8.39067009 L3.89803839,9.76501284 Z M3.89803839,7.16099963 L9.11430729,7.16099963 L9.11430729,5.78665688 L3.89803839,5.78665688 L3.89803839,7.16099963 Z M3.44444444,4.6293079 L9.56790123,4.6293079 L9.56790123,3.1103222 L3.44444444,3.1103222 L3.44444444,4.6293079 Z" id="Fill-11" fill="#FFFFFF" mask="url(#mask-2)"></path>
                        <path d="M5.56078087,16.0256061 L7.71998579,16.0256061 L7.71998579,12.6666638 L5.56078087,12.6666638 L5.56078087,16.0256061 Z M4.01851852,17.36 L9.18518519,17.36 L9.18518519,11.2 L4.01851852,11.2 L4.01851852,17.36 Z" id="Fill-13" fill="#FFFFFF" mask="url(#mask-2)"></path>
                        <polygon id="Fill-14" fill="#FFFFFF" mask="url(#mask-2)" points="14.105 19.173913 7.13 23.8913043 7.13 19.173913 1.86 19.173913 1.86 0 0 0 0 21 5.115 21 5.115 28 15.19 21 31 21 31 19.173913"></polygon>
                        <polygon id="Fill-15" fill="#FFFFFF" mask="url(#mask-2)" points="31 3.3 27.6170635 3.3 27.6170635 0 25.7718254 0 25.7718254 3.3 22.3888889 3.3 22.3888889 5.1 25.7718254 5.1 25.7718254 8.4 27.6170635 8.4 27.6170635 5.1 31 5.1"></polygon>
                    </g>
                </g>
            </g>
        </g>
    </g>
</svg>